<svg aria-hidden="true" style="position:absolute;width:0;height:0;overflow:hidden" xmlns="http://www.w3.org/2000/svg"><defs><symbol id="icon-bicycle" viewBox="0 0 32 32"><path fill="#d4c17f" style="fill:var(--color1, #d4c17f)" d="M8 27.2H.533a.533.533 0 1 0 0 1.066H8a.534.534 0 1 0 0-1.068zm-1.6-1.067c3.529 0 6.4-2.872 6.4-6.4a6.345 6.345 0 0 0-1.984-4.633.534.534 0 0 0-.737.772 5.278 5.278 0 0 1 1.654 3.842v.02-.001c0 2.941-2.392 5.333-5.333 5.333s-5.333-2.392-5.333-5.333A5.339 5.339 0 0 1 6.4 14.399a.533.533 0 0 0 0-1.066c-3.529 0-6.4 2.871-6.4 6.4s2.871 6.4 6.4 6.4z"/><path fill="#d4c17f" style="fill:var(--color1, #d4c17f)" d="M9.067 11.199h.27L6.256 18.68a1.066 1.066 0 0 0-.923 1.052c0 .589.478 1.067 1.067 1.067a1.068 1.068 0 0 0 1.067-1.066c0-.244-.086-.466-.224-.646l3.01-7.308 3.375 4.901a.532.532 0 0 0 .743.136l-.002.001a.532.532 0 0 0 .136-.742l-3.358-4.876h1.119c.882 0 1.6-.718 1.6-1.6s-.718-1.6-1.6-1.6h-3.2a.532.532 0 0 0-.533.534v2.133c0 .294.238.533.533.533zM9.6 9.066h2.667a.534.534 0 0 1 .001 1.066H9.6V9.065zm15.467 4.8c0 .294.238.533.533.533 2.941 0 5.333 2.392 5.333 5.334s-2.392 5.333-5.333 5.333-5.333-2.393-5.333-5.333c0-1.598.708-3.099 1.943-4.118a.534.534 0 0 0-.681-.823l.001-.001a6.379 6.379 0 0 0-2.33 4.932v.008c0 3.529 2.871 6.4 6.4 6.4s6.4-2.871 6.4-6.4-2.871-6.4-6.4-6.4a.533.533 0 0 0-.533.534zM16.533 27.2H11.2a.533.533 0 1 0 0 1.066h5.333a.533.533 0 1 0 0-1.066z"/><path fill="#d4c17f" style="fill:var(--color1, #d4c17f)" d="M16.533 17.142v-1.676a.533.533 0 1 0 0-1.066h-1.066a.533.533 0 1 0 0 1.066v1.676c-.918.238-1.6 1.066-1.6 2.057s.682 1.819 1.6 2.058v1.676a.533.533 0 0 0 0 1.066h1.066a.533.533 0 0 0 0-1.066v-1.676c.918-.239 1.6-1.066 1.6-2.058s-.682-1.819-1.6-2.058zM16 20.266a1.067 1.067 0 0 1 0-2.133 1.068 1.068 0 0 1 1.067 1.066A1.069 1.069 0 0 1 16 20.266zm8.778-1.205a1.054 1.054 0 0 0-.245.672 1.067 1.067 0 0 0 1.067 1.066 1.068 1.068 0 0 0 1.067-1.066c0-.528-.387-.964-.89-1.049l-2.407-6.418h3.808c.638 0 1.01-.51 1.079-.962l.533-2.667a.532.532 0 0 0-.521-.638h-4.801a.533.533 0 1 0 0 1.066h4.149l-.408 2.04c-.008.037-.031.089-.031.093H22.97L21.3 6.744l-.003-.006-.001-.006-1.067-2.667a.535.535 0 0 0-.99.4l-.001-.004.972 2.427-2.006 3.51a.532.532 0 0 0 .461.798h.002a.532.532 0 0 0 .461-.266l.001-.003 1.57-2.747 1.283 3.422-4.064 4.572a.533.533 0 1 0 .796.71v-.001l3.691-4.152 2.372 6.326zm6.689 8.139h-8.534a.533.533 0 1 0 0 1.066h8.534a.533.533 0 1 0 0-1.066zm-10.667 0h-1.067a.533.533 0 1 0 0 1.066H20.8a.534.534 0 1 0 0-1.068z"/></symbol><symbol id="icon-building" viewBox="0 0 32 32"><path fill="#d4c17f" style="fill:var(--color1, #d4c17f)" d="M22.933 29.867H8a.533.533 0 0 0-.533.533v1.067a.533.533 0 0 0 1.066.001v-.535h14.4a.533.533 0 0 0 .001-1.066h-.001zm-11.2-16.534c0 .294.239.534.534.534H14.4a.534.534 0 0 0 .533-.534v-3.2A.533.533 0 0 0 14.4 9.6h-2.133a.534.534 0 0 0-.534.533v3.2zm1.067-2.666h1.067V12.8H12.8v-2.133zM6.933 6.4h-6.4A.533.533 0 0 0 0 6.933V17.6a.534.534 0 0 0 1.066.001V7.467h5.866a.534.534 0 0 0 .001-1.066h-.001zM25.6 26.133c0 .294.239.534.533.534h2.134a.534.534 0 0 0 .533-.534v-3.2a.533.533 0 0 0-.533-.533h-2.134a.533.533 0 0 0-.533.533v3.2zm1.067-2.666h1.066V25.6h-1.066v-2.133zm-24-4.267C.031 19.2 0 26.064 0 26.133c0 1.288.918 2.365 2.133 2.613v2.721a.534.534 0 0 0 1.066.001v-2.722a2.672 2.672 0 0 0 2.133-2.613c0-.069-.03-6.933-2.666-6.933zm0 8.533c-.882 0-1.6-.718-1.6-1.6 0-2.657.714-5.866 1.6-5.866s1.6 3.21 1.6 5.866c0 .882-.718 1.6-1.6 1.6zM5.867 16H3.733a.533.533 0 0 0-.533.533V17.6a.534.534 0 0 0 1.066.001v-.534h1.066v2.666a.534.534 0 0 0 1.066.001v-3.201A.533.533 0 0 0 5.865 16zm20.266-2.133h2.134a.534.534 0 0 0 .533-.534v-3.2a.533.533 0 0 0-.533-.533h-2.134a.533.533 0 0 0-.533.533v3.2c0 .294.239.534.533.534zm.534-3.2h1.066V12.8h-1.066v-2.133z"/><path fill="#d4c17f" style="fill:var(--color1, #d4c17f)" d="M5.867 9.6H3.733a.533.533 0 0 0-.533.533v3.2c0 .294.239.534.533.534h2.134a.534.534 0 0 0 .533-.534v-3.2a.533.533 0 0 0-.533-.533zm-.534 3.2H4.267v-2.133h1.066V12.8zm11.734.533c0 .294.239.534.533.534h2.133a.535.535 0 0 0 .534-.534v-3.2a.534.534 0 0 0-.534-.533H17.6a.533.533 0 0 0-.533.533v3.2zm1.066-2.666H19.2V12.8h-1.067v-2.133zM31.467 6.4h-6.4a.534.534 0 0 0-.001 1.066h5.867v21.431a1.558 1.558 0 0 0-.532-.098H30.4c-.092 0-.184.008-.274.024a2.123 2.123 0 0 0-1.852-1.091h-.014c-.793 0-1.484.435-1.847 1.08l-.006.011a1.602 1.602 0 0 0-1.874 1.576c0 .882.718 1.6 1.6 1.6h4.266c.882 0 1.6-.718 1.6-1.6V6.932a.533.533 0 0 0-.533-.533zM30.4 30.933h-4.267a.534.534 0 1 1 .289-.979.535.535 0 0 0 .809-.328 1.062 1.062 0 0 1 1.034-.826h.004c.502 0 .923.349 1.032.818l.001.007a.531.531 0 0 0 .808.328c.347-.224.822.05.822.446a.533.533 0 0 1-.533.533zM17.6 7.467h2.133a.535.535 0 0 0 .534-.534v-3.2a.534.534 0 0 0-.534-.533H17.6a.533.533 0 0 0-.533.533v3.2c0 .294.239.534.533.534zm.533-3.2H19.2V6.4h-1.067V4.267zm-1.066 15.466c0 .294.239.534.533.534h2.133a.535.535 0 0 0 .534-.534v-3.2a.534.534 0 0 0-.534-.533H17.6a.533.533 0 0 0-.533.533v3.2zm1.066-2.666H19.2V19.2h-1.067v-2.133zm-5.866-9.6H14.4a.534.534 0 0 0 .533-.534v-3.2A.533.533 0 0 0 14.4 3.2h-2.133a.534.534 0 0 0-.534.533v3.2c0 .294.239.534.534.534zm.533-3.2h1.067V6.4H12.8V4.267zm2.821 21.488c-.096.101-.154.24-.154.378s.058.278.154.379c.102.096.24.155.379.155s.277-.059.379-.155c.096-.101.154-.24.154-.379s-.058-.277-.154-.378a.558.558 0 0 0-.758 0zm-3.888-6.022c0 .294.239.534.534.534H14.4a.534.534 0 0 0 .533-.534v-3.2A.533.533 0 0 0 14.4 16h-2.133a.534.534 0 0 0-.534.533v3.2zm1.067-2.666h1.067V19.2H12.8v-2.133z"/><path fill="#d4c17f" style="fill:var(--color1, #d4c17f)" d="M10.667 22.933c0 .294.239.534.533.534h1.6v4.8a.534.534 0 0 0 1.066.001v-4.801h4.266v4.8a.534.534 0 0 0 1.066.001v-4.801h1.6a.534.534 0 0 0 .001-1.066H11.198a.533.533 0 0 0-.533.533zm14.933-3.2c0 .294.239.534.533.534h2.134a.534.534 0 0 0 .533-.534v-3.2a.533.533 0 0 0-.533-.533h-2.134a.533.533 0 0 0-.533.533v3.2zm1.067-2.666h1.066V19.2h-1.066v-2.133z"/><path fill="#d4c17f" style="fill:var(--color1, #d4c17f)" d="M22.933 0H9.067a.534.534 0 0 0-.534.533v27.734a.534.534 0 0 0 1.066.001V1.067h12.8v27.2a.534.534 0 0 0 1.066.001V.533A.534.534 0 0 0 22.931 0z"/></symbol><symbol id="icon-facebook-logo" viewBox="0 0 32 32"><path fill="#fff" style="fill:var(--color2, #fff)" d="M24 .006 19.848 0c-4.661 0-7.674 3.091-7.674 7.875v3.632H8.001a.653.653 0 0 0-.651.651v5.261a.65.65 0 0 0 .651.653h4.174v13.275c0 .362.293.653.653.653h5.443a.653.653 0 0 0 .653-.653V18.072h4.88a.653.653 0 0 0 .651-.653l.002-5.261a.653.653 0 0 0-.653-.653h-4.88V8.428c0-1.48.352-2.23 2.28-2.23l2.795-.002a.653.653 0 0 0 .653-.653V.658a.653.653 0 0 0-.653-.653z"/></symbol><symbol id="icon-fountain" viewBox="0 0 32 32"><path fill="#d4c17f" style="fill:var(--color1, #d4c17f)" d="M21.356 1.849a.524.524 0 0 0 .217-.047c.153-.068.307-.133.464-.192a.533.533 0 0 0 .308-.691l.001.004a.536.536 0 0 0-.692-.309l.004-.001c-.176.067-.351.14-.522.216a.534.534 0 0 0 .216 1.02h.003zm-.023 11.566a.533.533 0 0 0 .534-.533v-.092c0-.14.009-.278.026-.413a.533.533 0 0 0-1.057-.141v.003c-.023.18-.036.366-.036.552v.092c0 .295.239.534.534.534zm-2.666.132a.533.533 0 0 0 .533-.533v-.542a.533.533 0 1 0-1.066 0v.542c0 .294.238.533.534.533zm3.062-8.436c-.172.094-.34.196-.502.304a.532.532 0 1 0 .594.885l-.002.001c.138-.091.279-.177.424-.257a.533.533 0 1 0-.517-.932l.003-.001zm-7.565-.054a.533.533 0 0 0 .737.167l-.002.001a.534.534 0 0 0 .167-.737l.001.002a8.946 8.946 0 0 0-.334-.499l.019.028a.533.533 0 1 0-.867.623l-.001-.002c.098.136.191.275.28.417zm9.751-3.928a.753.753 0 0 0 .067-.004c.165-.021.332-.037.5-.049a.534.534 0 0 0 .499-.532L24.98.507v.002a.535.535 0 0 0-.569-.496h.002c-.19.012-.378.031-.563.054a.533.533 0 0 0 .065 1.062h.001zm-1.977 8.76a.532.532 0 0 0 .408.878.53.53 0 0 0 .374-.153c.111-.12.233-.232.363-.336a.534.534 0 0 0 .085-.751l.001.001a.53.53 0 0 0-.751-.085l.001-.001a4.338 4.338 0 0 0-.482.446zm-4.837-4.664a.533.533 0 0 0 .734-.166l.001-.002c.089-.142.182-.281.28-.417a.534.534 0 0 0-.867-.622l-.001.002c-.09.123-.194.277-.293.434l-.022.037a.533.533 0 0 0 .166.733l.002.001zm4.232 10.765a.534.534 0 0 0 .534-.533v-.267a.533.533 0 1 0-1.066 0v.267c0 .294.238.533.533.533zm-2.677-5.154a.535.535 0 0 0 .601-.453v-.003c.022-.164.051-.326.087-.486a.533.533 0 0 0-1.04-.239l-.001.004a6.15 6.15 0 0 0-.101.542l-.004.037a.534.534 0 0 0 .454.599h.003zm-3.632-3.964c.054.158.102.317.146.479a.535.535 0 0 0 .658.374l-.004.001A.539.539 0 0 0 16 7.638a.53.53 0 0 0 .316.107.534.534 0 0 0 .514-.394c.044-.162.092-.322.145-.48a.534.534 0 0 0-.329-.676l-.004-.001a.527.527 0 0 0-.642.275.529.529 0 0 0-.643-.275.534.534 0 0 0-.331.681l-.001-.004zm4.09-3.589a.535.535 0 0 0 .35-.13c.126-.11.256-.217.388-.318a.533.533 0 1 0-.651-.845l.001-.001c-.15.115-.296.235-.438.359a.533.533 0 0 0 .349.935zm.414 3.734a7.225 7.225 0 0 0-.332.482.534.534 0 0 0 .45.818c.177 0 .35-.088.452-.249.088-.14.182-.277.282-.409a.534.534 0 0 0-.851-.643l-.001.001zm4.993-2.739a6.438 6.438 0 0 0-.623.076l.039-.006a.535.535 0 0 0 .176 1.052h-.003a5.49 5.49 0 0 1 .472-.058l.02-.001a.534.534 0 0 0 .49-.575v.002a.528.528 0 0 0-.527-.492l-.048.002h.002zm1.973-3.11c.166.027.331.058.494.094a.533.533 0 1 0 .231-1.041L27.216.22c-.183-.04-.368-.075-.555-.105a.531.531 0 0 0-.61.44v.003a.531.531 0 0 0 .44.609h.003zm.913 3.493a6.841 6.841 0 0 0-.56-.174.537.537 0 0 0-.652.375l-.001.004a.534.534 0 0 0 .375.652l.004.001c.16.042.318.091.473.147a.533.533 0 0 0 .364-1.003l-.004-.001zM24.85 8.528a.534.534 0 0 0-.506.561v-.001a.523.523 0 0 0 .559.506 3.375 3.375 0 0 1 .509.014l-.014-.001a.534.534 0 1 0 .111-1.061h-.002a4.264 4.264 0 0 0-.668-.017h.011zm6.222-4.979a.532.532 0 0 0 .754.034.534.534 0 0 0 .035-.754 7.631 7.631 0 0 0-.195-.206.534.534 0 0 0-.763.747c.058.058.114.118.169.178zm-8.139 16.707h-6.4a.533.533 0 1 0 0 1.066h6.4a2.638 2.638 0 0 0 2.667-2.667v-1.066a.534.534 0 0 0-.533-.534H6.933a.533.533 0 0 0-.533.534v1.066a2.638 2.638 0 0 0 2.667 2.667h4.8v2.667a.533.533 0 0 0 1.066 0v-3.2a.534.534 0 0 0-.533-.534H9.067c-.898 0-1.6-.703-1.6-1.6v-.533h17.066v.533c0 .897-.702 1.6-1.6 1.6zm5.326-7.695c.005.075.008.152.008.229a.533.533 0 0 0 1.066 0c0-.102-.004-.204-.011-.305a.531.531 0 0 0-.529-.496l-.042.002h.002a.534.534 0 0 0-.494.572v-.002zm-1.127-2.928a.535.535 0 0 0 .047.753l.001.001c.124.109.239.228.344.354a.532.532 0 0 0 .943-.341c0-.13-.047-.25-.124-.342l.001.001a4.275 4.275 0 0 0-.454-.467l-.005-.004a.531.531 0 0 0-.752.047v.001zm-10.599 2.593a.533.533 0 0 0-1.066 0v.593a.533.533 0 0 0 1.066 0v-.593zM16 14.656a.533.533 0 0 0-.533.534v.266a.533.533 0 0 0 1.066 0v-.266a.534.534 0 0 0-.533-.534zm2.133.8a.533.533 0 1 0 1.066 0v-.266a.533.533 0 1 0-1.066 0v.266zm-1.6-5.866c0-.084.001-.168.004-.251v-.013a.531.531 0 0 0-.329-.491l-.004-.001c-.02-.009-.044-.009-.065-.015-.04-.011-.078-.027-.121-.028h-.038c-.043.001-.082.017-.121.028-.021.006-.045.006-.064.015a.532.532 0 0 0-.332.492v.014-.001c.002.084.004.167.004.251v.267a.533.533 0 0 0 1.066 0V9.59zM12.8 15.456a.533.533 0 1 0 1.066 0v-.266a.533.533 0 1 0-1.066 0v.266zm.533-1.909a.534.534 0 0 0 .534-.533v-.542a.533.533 0 1 0-1.066 0v.542c0 .294.238.533.533.533zM11.2 15.456v-.266a.533.533 0 0 0-1.066 0v.266a.533.533 0 0 0 1.066 0zm-7.475-4.647a.53.53 0 0 0 .75-.068l.001-.001c.104-.126.22-.245.344-.354a.533.533 0 1 0-.706-.8h.001c-.165.145-.32.304-.459.472a.532.532 0 0 0 .068.75l.001.001z"/><path fill="#d4c17f" style="fill:var(--color1, #d4c17f)" d="M29.333 25.59h-11.2v-2.667a.533.533 0 0 0-1.066 0v3.2c0 .294.238.533.533.533h11.2v2.667c0 .882-.718 1.6-1.6 1.6H4.8c-.882 0-1.6-.718-1.6-1.6v-2.667h12.311a.533.533 0 0 0 0-1.066H2.667a.534.534 0 0 0-.534.533v3.2A2.67 2.67 0 0 0 4.8 31.99h22.4a2.67 2.67 0 0 0 2.667-2.667v-3.2a.533.533 0 0 0-.534-.533z"/><path fill="#d4c17f" style="fill:var(--color1, #d4c17f)" d="M12.8 28.256v1.067a.533.533 0 1 0 1.066 0v-1.067a.533.533 0 1 0-1.066 0zM.557 10.39H.538a.533.533 0 0 0-.532.514c-.004.095-.006.19-.006.286a.533.533 0 1 0 1.066 0c0-.083.002-.166.005-.248v-.019a.532.532 0 0 0-.514-.532H.556zm2.304-3.424c.12-.115.244-.225.372-.33a.534.534 0 1 0-.675-.825l.001-.001a7.048 7.048 0 0 0-.437.389.534.534 0 1 0 .739.766zm-1.41.875a.534.534 0 0 0-.715.235l-.001.003a7.13 7.13 0 0 0-.241.534.534.534 0 0 0 .989.4l.001-.003a5.75 5.75 0 0 1 .204-.453.533.533 0 0 0-.234-.714l-.003-.001zm.961-5.616a.53.53 0 0 0 .265-.071 7.45 7.45 0 0 1 .441-.235.534.534 0 1 0-.474-.956l.003-.001a8.897 8.897 0 0 0-.502.267.534.534 0 0 0 .267.996zm5.055 26.031v1.067a.533.533 0 0 0 1.066 0v-1.067a.533.533 0 0 0-1.066 0zM31.208 9.307a.535.535 0 0 0 .296-.696l.001.004a6.569 6.569 0 0 0-.259-.573l.018.038a.534.534 0 1 0-.952.481l-.001-.003c.074.148.143.298.204.453a.535.535 0 0 0 .697.295l-.004.001zm.786 1.597a.534.534 0 0 0-1.066.019v.02-.001c.003.082.005.165.005.248a.533.533 0 1 0 1.066 0c0-.096-.002-.19-.006-.286zm-2.14-9.674a8.293 8.293 0 0 0-.502-.267.536.536 0 0 0-.713.24l-.001.003a.534.534 0 0 0 .243.714c.15.073.296.152.44.235a.534.534 0 0 0 .534-.923l-.002-.001zm-5.321 28.093v-1.067a.533.533 0 0 0-1.066 0v1.067a.533.533 0 0 0 1.066 0zm-5.333 0v-1.067a.533.533 0 0 0-1.066 0v1.067a.533.533 0 0 0 1.066 0zM29.442 5.81a.533.533 0 0 0-.676.825l.001.001c.128.105.253.215.372.33a.533.533 0 1 0 .74-.766 6.738 6.738 0 0 0-.437-.389zM3.248 11.991a.528.528 0 0 0-.57.492v.002c-.007.101-.01.202-.01.305a.533.533 0 0 0 1.066 0c0-.077.003-.154.008-.229l.001-.038a.534.534 0 0 0-.493-.532h-.002zm7.317-.213a.534.534 0 0 0-.458.601v-.003c.018.136.026.273.026.414v.092a.533.533 0 1 0 1.066 0v-.092c0-.186-.012-.372-.036-.553a.531.531 0 0 0-.602-.459h.003zM9.963 1.61c.157.059.311.124.464.192a.532.532 0 0 0 .439-.971L10.863.83a6.906 6.906 0 0 0-.455-.194l-.067-.023a.536.536 0 0 0-.686.306l-.001.004a.533.533 0 0 0 .306.687l.004.001zm-.207 4.435c.145.08.287.166.424.257a.533.533 0 1 0 .594-.885l-.002-.001a6.695 6.695 0 0 0-.502-.304.533.533 0 0 0-.723.207l-.001.003a.533.533 0 0 0 .207.722l.003.001zM.533 3.723a.532.532 0 0 0 .394-.174c.055-.06.112-.12.169-.178a.533.533 0 0 0-.763-.747 7.631 7.631 0 0 0-.195.206.532.532 0 0 0 .394.893zm8.384 6.555c.13.104.252.216.363.336a.532.532 0 0 0 .935-.352.532.532 0 0 0-.152-.373 4.338 4.338 0 0 0-.482-.446.533.533 0 0 0-.665.834l.001.001zm2.984-2.211a.533.533 0 0 0 .738.166l-.002.001a.534.534 0 0 0 .167-.736 7.408 7.408 0 0 0-.346-.501l.013.019a.533.533 0 0 0-.748-.104l.001-.001a.532.532 0 0 0-.104.748l-.001-.001c.1.132.194.268.282.408zm.247-5.233c.132.102.262.208.388.318a.533.533 0 0 0 .7-.805l-.001-.001a8.888 8.888 0 0 0-.438-.359.534.534 0 0 0-.651.845l.001.001zm-7.252-1.56a.552.552 0 0 0 .114-.012 8.3 8.3 0 0 1 .495-.094.533.533 0 0 0 .442-.613v.003a.532.532 0 0 0-.614-.443h.003c-.187.03-.372.065-.555.105a.535.535 0 0 0 .113 1.054zm2.621-.198c.169.012.336.028.5.048a.53.53 0 0 0 .605-.528.532.532 0 0 0-.469-.529H8.15a7.96 7.96 0 0 0-.534-.053L7.587.012 7.554.011a.535.535 0 0 0-.534.496v.002l-.001.035c0 .282.219.513.496.532h.002zm5.541 8.18a.534.534 0 0 0-.402.641l-.001-.004c.037.16.066.322.088.486a.535.535 0 0 0 .603.456h-.003a.535.535 0 0 0 .457-.603v.003a7.017 7.017 0 0 0-.105-.579.536.536 0 0 0-.642-.401l.004-.001zM4.773 5.697c.06 0 .121-.01.18-.032a5.4 5.4 0 0 1 .473-.147.536.536 0 0 0 .379-.656l.001.004a.537.537 0 0 0-.656-.379l.004-.001c-.189.05-.376.109-.56.174a.533.533 0 0 0 .178 1.035h.002zm2.624-.356c.166.013.33.033.492.059a.532.532 0 0 0 .612-.437V4.96a.533.533 0 0 0-.436-.612h-.003a6.034 6.034 0 0 0-.56-.069l-.023-.001a.533.533 0 0 0-.084 1.062h.002zm-.85 4.268c.018 0 .037 0 .056-.003a3.183 3.183 0 0 1 .503-.013h-.008l.033.001a.527.527 0 0 0 .526-.506v-.001l.001-.027a.534.534 0 0 0-.505-.533h-.001a4.353 4.353 0 0 0-.676.019l.019-.002a.533.533 0 0 0 .054 1.064z"/></symbol><symbol id="icon-Group" viewBox="0 0 32 32"><path fill="#fff"  d="M16.104 7.013a4.096 4.096 0 0 0-4.09 4.091 4.095 4.095 0 0 0 4.09 4.088 4.096 4.096 0 0 0 4.091-4.09 4.095 4.095 0 0 0-4.091-4.091zm0 7.012a2.926 2.926 0 0 1-2.921-2.921 2.926 2.926 0 0 1 2.921-2.923 2.926 2.926 0 0 1 2.923 2.922 2.926 2.926 0 0 1-2.922 2.921z"/><path fill="#fff" style="fill:var(--color2, #fff)" d="M23.925 3.282A11.098 11.098 0 0 0 16.031 0H16h.002-.03a11.098 11.098 0 0 0-7.893 3.282v.001C4.161 7.199 3.674 14.57 7.021 19.035l8.981 12.966 8.965-12.949C28.33 14.57 27.844 7.2 23.926 3.284zm.093 15.086-8.017 11.578-8.03-11.596C4.933 14.3 5.368 7.644 8.904 4.108a9.94 9.94 0 0 1 7.07-2.939h.03-.002A9.97 9.97 0 0 1 23.1 4.11c3.535 3.535 3.971 10.19.919 14.258z"/></symbol><symbol id="icon-instagram" viewBox="0 0 32 32"><path fill="#fff" style="fill:var(--color2, #fff)" d="M22 0H10C4.477 0 0 4.477 0 10v12c0 5.523 4.477 10 10 10h12c5.523 0 10-4.477 10-10V10c0-5.523-4.477-10-10-10zm7 22a7.009 7.009 0 0 1-7 7H10a7.009 7.009 0 0 1-7-7V10a7.009 7.009 0 0 1 7-7h12a7.009 7.009 0 0 1 7 7v12z"/><path fill="#fff" style="fill:var(--color2, #fff)" d="M16 8a8 8 0 0 0 0 16 8 8 0 0 0 0-16zm0 13a5.008 5.008 0 0 1-5-5 5.007 5.007 0 0 1 5-5 5.007 5.007 0 0 1 5 5 5.008 5.008 0 0 1-5 5zm8.6-12.534a1.066 1.066 0 0 0 0-2.132 1.066 1.066 0 0 0 0 2.132z"/></symbol><symbol id="icon-park" viewBox="0 0 32 32"><path fill="#d4c17f" style="fill:var(--color1, #d4c17f)" d="M29.333 18.133a.534.534 0 0 0 .534-.533v-2.133a.534.534 0 0 0-.534-.534h-2.666V14.4a.533.533 0 1 0-1.066 0v.533H10.668V14.4a.534.534 0 0 0-1.066-.001v.534H6.935a.534.534 0 0 0-.533.534V17.6c0 .294.239.533.533.533h22.4zM7.467 17.067V16H28.8v1.067H7.467zM19.2 11.733c-.862 0-1.42.656-1.48.731a.525.525 0 0 0 .074.743l.001.001a.533.533 0 0 0 .749-.067l.001-.001c.002-.004.291-.34.656-.34s.653.336.653.336a.53.53 0 0 0 .751.077l-.001.001a.53.53 0 0 0 .077-.751l.001.001c-.061-.075-.618-.731-1.48-.731z"/><path fill="#d4c17f" style="fill:var(--color1, #d4c17f)" d="M29.333 22.4a.534.534 0 0 0 .534-.533v-2.134a.533.533 0 0 0-.534-.533h-2.666v-.533a.533.533 0 1 0-1.066 0v.533H10.668v-.533a.534.534 0 0 0-1.066-.001v.534H6.935a.533.533 0 0 0-.533.533v2.134c0 .294.239.533.533.533h22.4zM7.467 21.333v-1.066H28.8v1.066H7.467zm14.519-10.864a.531.531 0 0 0 .751.077l-.001.001a.53.53 0 0 0 .077-.751l.001.001c-.061-.075-.618-.73-1.481-.73s-1.42.655-1.48.73a.528.528 0 0 0 .074.744l.001.001c.226.188.56.154.749-.068.003-.004.292-.341.656-.341s.653.336.653.336zM.536 6.987c.027.272.256.48.531.48h3.2a.533.533 0 0 0 .53-.48l.534-5.334a.533.533 0 0 0-.53-.586h-1.6V.533A.533.533 0 0 0 2.135.532v.535H.534a.533.533 0 0 0-.53.589v-.002l.533 5.334zm3.675-4.854L3.784 6.4H1.549l-.426-4.267h3.088z"/><path fill="#d4c17f" style="fill:var(--color1, #d4c17f)" d="M14.933 12.267c0 .596.244 1.151.686 1.561a.528.528 0 0 0 .753-.028.534.534 0 0 0-.028-.754 1.05 1.05 0 0 1-.345-.778c.003-.455.29-.843.693-.994l.007-.002a.536.536 0 0 0 .178-.892 1.048 1.048 0 0 1-.344-.778c0-.555.437-1.019.994-1.057a.533.533 0 0 0 .356-.893 1.06 1.06 0 0 1-.285-.717c0-.554.437-1.018.994-1.057a.534.534 0 0 0 .357-.893 1.06 1.06 0 0 1-.284-.717c0-.477.325-.898.789-1.024a.533.533 0 0 0 .354-.717l.001.004a1.055 1.055 0 0 1-.079-.396 1.067 1.067 0 0 1 1.067-1.066 1.068 1.068 0 0 1 1.067 1.066c0 .133-.027.266-.078.397a.534.534 0 0 0 .353.713l.004.001c.456.126.787.536.789 1.023-.002.278-.11.529-.285.718l.001-.001a.535.535 0 0 0 .356.892h.002c.557.039.994.503.994 1.057-.002.278-.109.53-.285.718l.001-.001a.535.535 0 0 0 .356.892h.002c.557.038.994.502.994 1.057 0 .296-.122.573-.345.779a.533.533 0 0 0 .175.891l.004.001c.41.154.697.541.7.996a.533.533 0 0 0 1.066 0 2.13 2.13 0 0 0-.788-1.649l-.004-.003c.163-.292.258-.64.258-1.01v-.005c0-.834-.491-1.567-1.206-1.914.089-.223.14-.482.14-.753 0-.834-.491-1.567-1.207-1.914.089-.223.14-.482.14-.753a2.13 2.13 0 0 0-1.076-1.846l-.01-.006A2.136 2.136 0 0 0 20.8 0a2.135 2.135 0 0 0-2.112 2.426l-.001-.011a2.135 2.135 0 0 0-1.086 1.852c0 .259.048.514.14.753a2.134 2.134 0 0 0-1.207 1.914c0 .259.048.514.14.753a2.133 2.133 0 0 0-1.206 1.914c0 .361.09.707.258 1.015a2.133 2.133 0 0 0-.792 1.651z"/><path fill="#d4c17f" style="fill:var(--color1, #d4c17f)" d="M20.064 7.424a.532.532 0 0 0 .695-.284l.001-.003a.768.768 0 0 1 .042-.086l-.002.004a.651.651 0 0 1 .039.08.535.535 0 0 0 .988-.405l.001.004c-.059-.144-.384-.866-1.028-.866s-.968.722-1.028.866a.532.532 0 0 0 .288.691l.003.001zm11.403 23.509h-8.534a.533.533 0 1 0 0 1.066h8.534a.533.533 0 1 0 0-1.066zm0-7.466h-4.8v-.534a.533.533 0 1 0-1.066 0v.534H10.668v-.534a.534.534 0 0 0-1.066-.001v.535h-4.8a.533.533 0 0 0-.533.533v2.133c0 .294.239.534.533.534h1.6v2.666a.534.534 0 0 0 1.066.001v-2.667h21.333v2.666a.533.533 0 1 0 1.066 0v-2.666h1.6a.533.533 0 0 0 .533-.534V24a.533.533 0 0 0-.533-.533zm-.534 2.133h-25.6v-1.067h25.6V25.6z"/><path fill="#d4c17f" style="fill:var(--color1, #d4c17f)" d="M8 30.933H3.2V9.067a.534.534 0 0 0-1.066-.001v21.867h-1.6a.534.534 0 0 0-.001 1.066h7.468a.534.534 0 0 0 .001-1.066h-.001zm12.8 0h-1.067a.533.533 0 1 0 0 1.066H20.8a.533.533 0 1 0 0-1.066zm-4.267 0H11.2a.534.534 0 0 0-.001 1.066H16.533a.533.533 0 1 0 0-1.066z"/></symbol><symbol id="icon-phone" viewBox="0 0 32 32"><path fill="#fff" style="fill:var(--color2, #fff)" d="M31.979 26.338a2.461 2.461 0 0 0-1.206-1.813l-.012-.006-7.893-4.546a2.455 2.455 0 0 0-1.233-.328c-.684 0-1.303.277-1.751.725l-1.554 1.554a1.138 1.138 0 0 1-1.526.084l.002.002a45.105 45.105 0 0 1-3.586-3.227l-.001-.001a45.228 45.228 0 0 1-3.16-3.504l-.066-.083a1.136 1.136 0 0 1 .085-1.524l1.554-1.554a2.468 2.468 0 0 0 .723-1.749c0-.454-.122-.879-.335-1.245l.006.012L7.48 1.242A2.462 2.462 0 0 0 5.673.024L5.66.023a2.443 2.443 0 0 0-2.072.703L1.244 3.07c-1.635 1.635-1.661 4.626-.073 8.422 1.527 3.65 4.375 7.668 8.021 11.314s7.665 6.496 11.316 8.021c1.868.782 3.541 1.173 4.955 1.173 1.457 0 2.636-.416 3.467-1.246l2.344-2.344a2.447 2.447 0 0 0 .702-2.072zm-9.629-5.466 7.893 4.546a1.425 1.425 0 0 1 .722 1.248c0 .32-.106.615-.284.853l.003-.004-10.491-5.989.427-.425a1.439 1.439 0 0 1 1.731-.229zM5.527 1.048a1.43 1.43 0 0 1 1.052.702l.004.007 4.546 7.893c.12.206.191.453.191.717 0 .397-.16.756-.42 1.016l-.392.392L4.489 1.319a1.41 1.41 0 0 1 1.045-.269l-.007-.001zm22.674 28.973c-1.3 1.298-3.957 1.245-7.291-.149-3.529-1.477-7.429-4.245-10.982-7.799S3.604 14.62 2.131 11.091C.737 7.757.682 5.101 1.98 3.801l1.74-1.74 6.03 10.473-.404.405c-.396.394-.64.939-.64 1.541 0 .518.181.994.484 1.367l-.003-.004a46.529 46.529 0 0 0 6.885 6.904l.086.067a2.174 2.174 0 0 0 2.906-.158l.369-.369 10.505 5.996-1.737 1.737z"/></symbol><symbol id="icon-vk" viewBox="0 0 32 32"><path fill="#fff" style="fill:var(--color2, #fff)" d="M30.994 23.166a2.069 2.069 0 0 0-.11-.212l.005.01c-.541-.973-1.573-2.169-3.099-3.586l-.033-.032-.016-.016-.016-.017h-.017c-.692-.66-1.13-1.102-1.314-1.33-.335-.433-.411-.871-.228-1.315.13-.335.617-1.044 1.46-2.124.444-.574.795-1.033 1.054-1.38 1.871-2.488 2.683-4.077 2.434-4.77l-.097-.162c-.065-.098-.232-.187-.502-.268s-.617-.094-1.039-.04l-4.672.032c-.076-.027-.184-.025-.324.008l-.211.049-.082.041-.064.049a.71.71 0 0 0-.177.168l-.001.002a1.098 1.098 0 0 0-.159.277l-.003.008a26.173 26.173 0 0 1-1.805 3.776l.068-.126c-.4.67-.767 1.252-1.102 1.744s-.617.854-.844 1.087a6.04 6.04 0 0 1-.604.551l-.012.009c-.184.14-.324.2-.422.178s-.188-.044-.276-.065a1.088 1.088 0 0 1-.362-.392l-.003-.006a1.758 1.758 0 0 1-.186-.625l-.001-.008a6.404 6.404 0 0 1-.057-.644v-.014c-.004-.183-.003-.443.009-.778s.016-.563.016-.682c0-.411.009-.857.024-1.339.017-.481.029-.862.041-1.143s.016-.579.016-.892-.019-.56-.057-.738a2.553 2.553 0 0 0-.176-.536l.006.016a.878.878 0 0 0-.329-.387l-.003-.002a1.84 1.84 0 0 0-.531-.216l-.013-.003c-.573-.13-1.303-.2-2.19-.211-2.012-.022-3.304.108-3.877.389-.24.129-.444.291-.614.484l-.002.002c-.196.238-.222.368-.082.389.649.098 1.108.33 1.38.698l.098.195c.076.14.151.389.227.747s.124.751.146 1.184c.053.789.053 1.465 0 2.028-.049.549-.103 1-.17 1.447l.016-.133a2.608 2.608 0 0 1-.22.763 3.238 3.238 0 0 1-.202.37l.008-.013a.262.262 0 0 1-.08.079l-.001.001c-.14.055-.287.082-.438.082s-.335-.076-.551-.227a3.92 3.92 0 0 1-.669-.62l-.004-.005a8.53 8.53 0 0 1-.787-1.111 17.785 17.785 0 0 1-.858-1.572l-.051-.115-.26-.471a37.41 37.41 0 0 1-.665-1.322 20.571 20.571 0 0 1-.685-1.51l-.062-.17a1.069 1.069 0 0 0-.386-.516l-.003-.002-.081-.049a1.066 1.066 0 0 0-.252-.135l-.008-.003a1.675 1.675 0 0 0-.363-.104l-.01-.001-4.444.032c-.455 0-.763.103-.925.308l-.065.098a.512.512 0 0 0-.049.261v-.002c0 .119.033.265.098.438a51.468 51.468 0 0 0 2.255 4.693l-.14-.28c.763 1.417 1.425 2.558 1.988 3.422a39.267 39.267 0 0 0 1.792 2.548l-.072-.098c.584.768.971 1.26 1.159 1.476s.338.379.447.487l.405.389c.26.26.64.571 1.143.933s1.06.719 1.671 1.071c.612.351 1.323.637 2.133.859s1.601.311 2.369.268h1.867c.378-.033.664-.151.86-.357l.064-.081c.044-.065.084-.165.122-.3.036-.129.057-.276.057-.429v-.018.001a5.45 5.45 0 0 1 .111-1.292l-.006.035c.081-.373.173-.654.276-.844.104-.189.22-.348.349-.478s.222-.208.276-.236a1.17 1.17 0 0 1 .13-.056c.26-.087.565-.003.917.252s.681.568.989.94c.308.373.679.793 1.111 1.258s.812.811 1.136 1.038l.324.195c.217.13.498.249.844.356.345.108.648.135.908.082l4.153-.065c.411 0 .731-.068.957-.204s.362-.284.405-.446a1.25 1.25 0 0 0 .009-.551 2.047 2.047 0 0 0-.119-.444l.005.014z"/></symbol><symbol id="icon-youtube" viewBox="0 0 32 32"><path fill="#fff" style="fill:var(--color2, #fff)" d="M24.711 4.966H6.478a6.477 6.477 0 0 0-6.477 6.477v9.114c0 3.577 2.9 6.477 6.477 6.477h18.233c3.577 0 6.477-2.9 6.477-6.477v-9.114c0-3.577-2.9-6.477-6.477-6.477h-.001zM20.33 16.444l-8.529 4.067a.342.342 0 0 1-.49-.308v-8.391a.341.341 0 0 1 .498-.303l-.002-.001 8.53 4.321a.34.34 0 0 1-.006.613l-.002.001z"/></symbol></defs></svg>