<svg aria-hidden="true" style="position:absolute;width:0;height:0;overflow:hidden" xmlns="http://www.w3.org/2000/svg"><defs><symbol id="icon-bench" viewBox="0 0 32 32"><path fill="#d4c17f" style="fill:var(--color1, #d4c17f)" d="M29.333 18.133a.534.534 0 0 0 .534-.533v-2.133a.534.534 0 0 0-.534-.534h-2.666V14.4a.533.533 0 1 0-1.066 0v.533H10.668V14.4a.534.534 0 0 0-1.066-.001v.534H6.935a.534.534 0 0 0-.533.534V17.6c0 .294.239.533.533.533h22.4zM7.467 17.067V16H28.8v1.067H7.467zM19.2 11.733c-.862 0-1.42.656-1.48.731a.525.525 0 0 0 .074.743l.001.001a.533.533 0 0 0 .749-.067l.001-.001c.002-.004.291-.34.656-.34s.653.336.653.336a.53.53 0 0 0 .751.077l-.001.001a.53.53 0 0 0 .077-.751l.001.001c-.061-.075-.618-.731-1.48-.731z"/><path fill="#d4c17f" style="fill:var(--color1, #d4c17f)" d="M29.333 22.4a.534.534 0 0 0 .534-.533v-2.134a.533.533 0 0 0-.534-.533h-2.666v-.533a.533.533 0 1 0-1.066 0v.533H10.668v-.533a.534.534 0 0 0-1.066-.001v.534H6.935a.533.533 0 0 0-.533.533v2.134c0 .294.239.533.533.533h22.4zM7.467 21.333v-1.066H28.8v1.066H7.467zm14.519-10.864a.531.531 0 0 0 .751.077l-.001.001a.53.53 0 0 0 .077-.751l.001.001c-.061-.075-.618-.73-1.481-.73s-1.42.655-1.48.73a.528.528 0 0 0 .074.744l.001.001c.226.188.56.154.749-.068.003-.004.292-.341.656-.341s.653.336.653.336zM.536 6.987c.027.272.256.48.531.48h3.2a.533.533 0 0 0 .53-.48l.534-5.334a.533.533 0 0 0-.53-.586h-1.6V.533A.533.533 0 0 0 2.135.532v.535H.534a.533.533 0 0 0-.53.589v-.002l.533 5.334zm3.675-4.854L3.784 6.4H1.549l-.426-4.267h3.088z"/><path fill="#d4c17f" style="fill:var(--color1, #d4c17f)" d="M14.933 12.267c0 .596.244 1.151.686 1.561a.528.528 0 0 0 .753-.028.534.534 0 0 0-.028-.754 1.05 1.05 0 0 1-.345-.778c.003-.455.29-.843.693-.994l.007-.002a.536.536 0 0 0 .178-.892 1.048 1.048 0 0 1-.344-.778c0-.555.437-1.019.994-1.057a.533.533 0 0 0 .356-.893 1.06 1.06 0 0 1-.285-.717c0-.554.437-1.018.994-1.057a.534.534 0 0 0 .357-.893 1.06 1.06 0 0 1-.284-.717c0-.477.325-.898.789-1.024a.533.533 0 0 0 .354-.717l.001.004a1.055 1.055 0 0 1-.079-.396 1.067 1.067 0 0 1 1.067-1.066 1.068 1.068 0 0 1 1.067 1.066c0 .133-.027.266-.078.397a.534.534 0 0 0 .353.713l.004.001c.456.126.787.536.789 1.023-.002.278-.11.529-.285.718l.001-.001a.535.535 0 0 0 .356.892h.002c.557.039.994.503.994 1.057-.002.278-.109.53-.285.718l.001-.001a.535.535 0 0 0 .356.892h.002c.557.038.994.502.994 1.057 0 .296-.122.573-.345.779a.533.533 0 0 0 .175.891l.004.001c.41.154.697.541.7.996a.533.533 0 0 0 1.066 0 2.13 2.13 0 0 0-.788-1.649l-.004-.003c.163-.292.258-.64.258-1.01v-.005c0-.834-.491-1.567-1.206-1.914.089-.223.14-.482.14-.753 0-.834-.491-1.567-1.207-1.914.089-.223.14-.482.14-.753a2.13 2.13 0 0 0-1.076-1.846l-.01-.006A2.136 2.136 0 0 0 20.8 0a2.135 2.135 0 0 0-2.112 2.426l-.001-.011a2.135 2.135 0 0 0-1.086 1.852c0 .259.048.514.14.753a2.134 2.134 0 0 0-1.207 1.914c0 .259.048.514.14.753a2.133 2.133 0 0 0-1.206 1.914c0 .361.09.707.258 1.015a2.133 2.133 0 0 0-.792 1.651z"/><path fill="#d4c17f" style="fill:var(--color1, #d4c17f)" d="M20.064 7.424a.532.532 0 0 0 .695-.284l.001-.003a.768.768 0 0 1 .042-.086l-.002.004a.651.651 0 0 1 .039.08.535.535 0 0 0 .988-.405l.001.004c-.059-.144-.384-.866-1.028-.866s-.968.722-1.028.866a.532.532 0 0 0 .288.691l.003.001zm11.403 23.509h-8.534a.533.533 0 1 0 0 1.066h8.534a.533.533 0 1 0 0-1.066zm0-7.466h-4.8v-.534a.533.533 0 1 0-1.066 0v.534H10.668v-.534a.534.534 0 0 0-1.066-.001v.535h-4.8a.533.533 0 0 0-.533.533v2.133c0 .294.239.534.533.534h1.6v2.666a.534.534 0 0 0 1.066.001v-2.667h21.333v2.666a.533.533 0 1 0 1.066 0v-2.666h1.6a.533.533 0 0 0 .533-.534V24a.533.533 0 0 0-.533-.533zm-.534 2.133h-25.6v-1.067h25.6V25.6z"/><path fill="#d4c17f" style="fill:var(--color1, #d4c17f)" d="M8 30.933H3.2V9.067a.534.534 0 0 0-1.066-.001v21.867h-1.6a.534.534 0 0 0-.001 1.066h7.468a.534.534 0 0 0 .001-1.066h-.001zm12.8 0h-1.067a.533.533 0 1 0 0 1.066H20.8a.533.533 0 1 0 0-1.066zm-4.267 0H11.2a.534.534 0 0 0-.001 1.066H16.533a.533.533 0 1 0 0-1.066z"/></symbol><symbol id="icon-bicycle" viewBox="0 0 32 32"><path fill="#d4c17f" style="fill:var(--color1, #d4c17f)" d="M8 27.2H.533a.533.533 0 1 0 0 1.066H8a.534.534 0 1 0 0-1.068zm-1.6-1.067c3.529 0 6.4-2.872 6.4-6.4a6.345 6.345 0 0 0-1.984-4.633.534.534 0 0 0-.737.772 5.278 5.278 0 0 1 1.654 3.842v.02-.001c0 2.941-2.392 5.333-5.333 5.333s-5.333-2.392-5.333-5.333A5.339 5.339 0 0 1 6.4 14.399a.533.533 0 0 0 0-1.066c-3.529 0-6.4 2.871-6.4 6.4s2.871 6.4 6.4 6.4z"/><path fill="#d4c17f" style="fill:var(--color1, #d4c17f)" d="M9.067 11.199h.27L6.256 18.68a1.066 1.066 0 0 0-.923 1.052c0 .589.478 1.067 1.067 1.067a1.068 1.068 0 0 0 1.067-1.066c0-.244-.086-.466-.224-.646l3.01-7.308 3.375 4.901a.532.532 0 0 0 .743.136l-.002.001a.532.532 0 0 0 .136-.742l-3.358-4.876h1.119c.882 0 1.6-.718 1.6-1.6s-.718-1.6-1.6-1.6h-3.2a.532.532 0 0 0-.533.534v2.133c0 .294.238.533.533.533zM9.6 9.066h2.667a.534.534 0 0 1 .001 1.066H9.6V9.065zm15.467 4.8c0 .294.238.533.533.533 2.941 0 5.333 2.392 5.333 5.334s-2.392 5.333-5.333 5.333-5.333-2.393-5.333-5.333c0-1.598.708-3.099 1.943-4.118a.534.534 0 0 0-.681-.823l.001-.001a6.379 6.379 0 0 0-2.33 4.932v.008c0 3.529 2.871 6.4 6.4 6.4s6.4-2.871 6.4-6.4-2.871-6.4-6.4-6.4a.533.533 0 0 0-.533.534zM16.533 27.2H11.2a.533.533 0 1 0 0 1.066h5.333a.533.533 0 1 0 0-1.066z"/><path fill="#d4c17f" style="fill:var(--color1, #d4c17f)" d="M16.533 17.142v-1.676a.533.533 0 1 0 0-1.066h-1.066a.533.533 0 1 0 0 1.066v1.676c-.918.238-1.6 1.066-1.6 2.057s.682 1.819 1.6 2.058v1.676a.533.533 0 0 0 0 1.066h1.066a.533.533 0 0 0 0-1.066v-1.676c.918-.239 1.6-1.066 1.6-2.058s-.682-1.819-1.6-2.058zM16 20.266a1.067 1.067 0 0 1 0-2.133 1.068 1.068 0 0 1 1.067 1.066A1.069 1.069 0 0 1 16 20.266zm8.778-1.205a1.054 1.054 0 0 0-.245.672 1.067 1.067 0 0 0 1.067 1.066 1.068 1.068 0 0 0 1.067-1.066c0-.528-.387-.964-.89-1.049l-2.407-6.418h3.808c.638 0 1.01-.51 1.079-.962l.533-2.667a.532.532 0 0 0-.521-.638h-4.801a.533.533 0 1 0 0 1.066h4.149l-.408 2.04c-.008.037-.031.089-.031.093H22.97L21.3 6.744l-.003-.006-.001-.006-1.067-2.667a.535.535 0 0 0-.99.4l-.001-.004.972 2.427-2.006 3.51a.532.532 0 0 0 .461.798h.002a.532.532 0 0 0 .461-.266l.001-.003 1.57-2.747 1.283 3.422-4.064 4.572a.533.533 0 1 0 .796.71v-.001l3.691-4.152 2.372 6.326zm6.689 8.139h-8.534a.533.533 0 1 0 0 1.066h8.534a.533.533 0 1 0 0-1.066zm-10.667 0h-1.067a.533.533 0 1 0 0 1.066H20.8a.534.534 0 1 0 0-1.068z"/></symbol><symbol id="icon-building" viewBox="0 0 32 32"><path fill="#d4c17f" style="fill:var(--color1, #d4c17f)" d="M22.933 29.867H8a.533.533 0 0 0-.533.533v1.067a.533.533 0 0 0 1.066.001v-.535h14.4a.533.533 0 0 0 .001-1.066h-.001zm-11.2-16.534c0 .294.239.534.534.534H14.4a.534.534 0 0 0 .533-.534v-3.2A.533.533 0 0 0 14.4 9.6h-2.133a.534.534 0 0 0-.534.533v3.2zm1.067-2.666h1.067V12.8H12.8v-2.133zM6.933 6.4h-6.4A.533.533 0 0 0 0 6.933V17.6a.534.534 0 0 0 1.066.001V7.467h5.866a.534.534 0 0 0 .001-1.066h-.001zM25.6 26.133c0 .294.239.534.533.534h2.134a.534.534 0 0 0 .533-.534v-3.2a.533.533 0 0 0-.533-.533h-2.134a.533.533 0 0 0-.533.533v3.2zm1.067-2.666h1.066V25.6h-1.066v-2.133zm-24-4.267C.031 19.2 0 26.064 0 26.133c0 1.288.918 2.365 2.133 2.613v2.721a.534.534 0 0 0 1.066.001v-2.722a2.672 2.672 0 0 0 2.133-2.613c0-.069-.03-6.933-2.666-6.933zm0 8.533c-.882 0-1.6-.718-1.6-1.6 0-2.657.714-5.866 1.6-5.866s1.6 3.21 1.6 5.866c0 .882-.718 1.6-1.6 1.6zM5.867 16H3.733a.533.533 0 0 0-.533.533V17.6a.534.534 0 0 0 1.066.001v-.534h1.066v2.666a.534.534 0 0 0 1.066.001v-3.201A.533.533 0 0 0 5.865 16zm20.266-2.133h2.134a.534.534 0 0 0 .533-.534v-3.2a.533.533 0 0 0-.533-.533h-2.134a.533.533 0 0 0-.533.533v3.2c0 .294.239.534.533.534zm.534-3.2h1.066V12.8h-1.066v-2.133z"/><path fill="#d4c17f" style="fill:var(--color1, #d4c17f)" d="M5.867 9.6H3.733a.533.533 0 0 0-.533.533v3.2c0 .294.239.534.533.534h2.134a.534.534 0 0 0 .533-.534v-3.2a.533.533 0 0 0-.533-.533zm-.534 3.2H4.267v-2.133h1.066V12.8zm11.734.533c0 .294.239.534.533.534h2.133a.535.535 0 0 0 .534-.534v-3.2a.534.534 0 0 0-.534-.533H17.6a.533.533 0 0 0-.533.533v3.2zm1.066-2.666H19.2V12.8h-1.067v-2.133zM31.467 6.4h-6.4a.534.534 0 0 0-.001 1.066h5.867v21.431a1.558 1.558 0 0 0-.532-.098H30.4c-.092 0-.184.008-.274.024a2.123 2.123 0 0 0-1.852-1.091h-.014c-.793 0-1.484.435-1.847 1.08l-.006.011a1.602 1.602 0 0 0-1.874 1.576c0 .882.718 1.6 1.6 1.6h4.266c.882 0 1.6-.718 1.6-1.6V6.932a.533.533 0 0 0-.533-.533zM30.4 30.933h-4.267a.534.534 0 1 1 .289-.979.535.535 0 0 0 .809-.328 1.062 1.062 0 0 1 1.034-.826h.004c.502 0 .923.349 1.032.818l.001.007a.531.531 0 0 0 .808.328c.347-.224.822.05.822.446a.533.533 0 0 1-.533.533zM17.6 7.467h2.133a.535.535 0 0 0 .534-.534v-3.2a.534.534 0 0 0-.534-.533H17.6a.533.533 0 0 0-.533.533v3.2c0 .294.239.534.533.534zm.533-3.2H19.2V6.4h-1.067V4.267zm-1.066 15.466c0 .294.239.534.533.534h2.133a.535.535 0 0 0 .534-.534v-3.2a.534.534 0 0 0-.534-.533H17.6a.533.533 0 0 0-.533.533v3.2zm1.066-2.666H19.2V19.2h-1.067v-2.133zm-5.866-9.6H14.4a.534.534 0 0 0 .533-.534v-3.2A.533.533 0 0 0 14.4 3.2h-2.133a.534.534 0 0 0-.534.533v3.2c0 .294.239.534.534.534zm.533-3.2h1.067V6.4H12.8V4.267zm2.821 21.488c-.096.101-.154.24-.154.378s.058.278.154.379c.102.096.24.155.379.155s.277-.059.379-.155c.096-.101.154-.24.154-.379s-.058-.277-.154-.378a.558.558 0 0 0-.758 0zm-3.888-6.022c0 .294.239.534.534.534H14.4a.534.534 0 0 0 .533-.534v-3.2A.533.533 0 0 0 14.4 16h-2.133a.534.534 0 0 0-.534.533v3.2zm1.067-2.666h1.067V19.2H12.8v-2.133z"/><path fill="#d4c17f" style="fill:var(--color1, #d4c17f)" d="M10.667 22.933c0 .294.239.534.533.534h1.6v4.8a.534.534 0 0 0 1.066.001v-4.801h4.266v4.8a.534.534 0 0 0 1.066.001v-4.801h1.6a.534.534 0 0 0 .001-1.066H11.198a.533.533 0 0 0-.533.533zm14.933-3.2c0 .294.239.534.533.534h2.134a.534.534 0 0 0 .533-.534v-3.2a.533.533 0 0 0-.533-.533h-2.134a.533.533 0 0 0-.533.533v3.2zm1.067-2.666h1.066V19.2h-1.066v-2.133z"/><path fill="#d4c17f" style="fill:var(--color1, #d4c17f)" d="M22.933 0H9.067a.534.534 0 0 0-.534.533v27.734a.534.534 0 0 0 1.066.001V1.067h12.8v27.2a.534.534 0 0 0 1.066.001V.533A.534.534 0 0 0 22.931 0z"/></symbol><symbol id="icon-FB" viewBox="0 0 32 32"><path  d="M21.405 6.004 18.813 6c-2.913 0-4.796 1.932-4.796 4.923v2.269h-2.609A.408.408 0 0 0 11 13.6v3.288c0 .225.183.408.408.408h2.608v8.296c0 .227.181.408.408.408h3.401a.408.408 0 0 0 .408-.408v-8.296h3.049a.408.408 0 0 0 .408-.408V13.6a.408.408 0 0 0-.407-.408h-3.051v-1.925c0-.925.22-1.395 1.425-1.395h1.747a.408.408 0 0 0 .408-.408V6.411a.408.408 0 0 0-.408-.408z"/></symbol><symbol id="icon-fountain" viewBox="0 0 32 32"><path fill="#d4c17f" style="fill:var(--color1, #d4c17f)" d="M21.356 1.849a.524.524 0 0 0 .217-.047c.153-.068.307-.133.464-.192a.533.533 0 0 0 .308-.691l.001.004a.536.536 0 0 0-.692-.309l.004-.001c-.176.067-.351.14-.522.216a.534.534 0 0 0 .216 1.02h.003zm-.023 11.566a.533.533 0 0 0 .534-.533v-.092c0-.14.009-.278.026-.413a.533.533 0 0 0-1.057-.141v.003c-.023.18-.036.366-.036.552v.092c0 .295.239.534.534.534zm-2.666.132a.533.533 0 0 0 .533-.533v-.542a.533.533 0 1 0-1.066 0v.542c0 .294.238.533.534.533zm3.062-8.436c-.172.094-.34.196-.502.304a.532.532 0 1 0 .594.885l-.002.001c.138-.091.279-.177.424-.257a.533.533 0 1 0-.517-.932l.003-.001zm-7.565-.054a.533.533 0 0 0 .737.167l-.002.001a.534.534 0 0 0 .167-.737l.001.002a8.946 8.946 0 0 0-.334-.499l.019.028a.533.533 0 1 0-.867.623l-.001-.002c.098.136.191.275.28.417zm9.751-3.928a.753.753 0 0 0 .067-.004c.165-.021.332-.037.5-.049a.534.534 0 0 0 .499-.532L24.98.507v.002a.535.535 0 0 0-.569-.496h.002c-.19.012-.378.031-.563.054a.533.533 0 0 0 .065 1.062h.001zm-1.977 8.76a.532.532 0 0 0 .408.878.53.53 0 0 0 .374-.153c.111-.12.233-.232.363-.336a.534.534 0 0 0 .085-.751l.001.001a.53.53 0 0 0-.751-.085l.001-.001a4.338 4.338 0 0 0-.482.446zm-4.837-4.664a.533.533 0 0 0 .734-.166l.001-.002c.089-.142.182-.281.28-.417a.534.534 0 0 0-.867-.622l-.001.002c-.09.123-.194.277-.293.434l-.022.037a.533.533 0 0 0 .166.733l.002.001zm4.232 10.765a.534.534 0 0 0 .534-.533v-.267a.533.533 0 1 0-1.066 0v.267c0 .294.238.533.533.533zm-2.677-5.154a.535.535 0 0 0 .601-.453v-.003c.022-.164.051-.326.087-.486a.533.533 0 0 0-1.04-.239l-.001.004a6.15 6.15 0 0 0-.101.542l-.004.037a.534.534 0 0 0 .454.599h.003zm-3.632-3.964c.054.158.102.317.146.479a.535.535 0 0 0 .658.374l-.004.001A.539.539 0 0 0 16 7.638a.53.53 0 0 0 .316.107.534.534 0 0 0 .514-.394c.044-.162.092-.322.145-.48a.534.534 0 0 0-.329-.676l-.004-.001a.527.527 0 0 0-.642.275.529.529 0 0 0-.643-.275.534.534 0 0 0-.331.681l-.001-.004zm4.09-3.589a.535.535 0 0 0 .35-.13c.126-.11.256-.217.388-.318a.533.533 0 1 0-.651-.845l.001-.001c-.15.115-.296.235-.438.359a.533.533 0 0 0 .349.935zm.414 3.734a7.225 7.225 0 0 0-.332.482.534.534 0 0 0 .45.818c.177 0 .35-.088.452-.249.088-.14.182-.277.282-.409a.534.534 0 0 0-.851-.643l-.001.001zm4.993-2.739a6.438 6.438 0 0 0-.623.076l.039-.006a.535.535 0 0 0 .176 1.052h-.003a5.49 5.49 0 0 1 .472-.058l.02-.001a.534.534 0 0 0 .49-.575v.002a.528.528 0 0 0-.527-.492l-.048.002h.002zm1.973-3.11c.166.027.331.058.494.094a.533.533 0 1 0 .231-1.041L27.216.22c-.183-.04-.368-.075-.555-.105a.531.531 0 0 0-.61.44v.003a.531.531 0 0 0 .44.609h.003zm.913 3.493a6.841 6.841 0 0 0-.56-.174.537.537 0 0 0-.652.375l-.001.004a.534.534 0 0 0 .375.652l.004.001c.16.042.318.091.473.147a.533.533 0 0 0 .364-1.003l-.004-.001zM24.85 8.528a.534.534 0 0 0-.506.561v-.001a.523.523 0 0 0 .559.506 3.375 3.375 0 0 1 .509.014l-.014-.001a.534.534 0 1 0 .111-1.061h-.002a4.264 4.264 0 0 0-.668-.017h.011zm6.222-4.979a.532.532 0 0 0 .754.034.534.534 0 0 0 .035-.754 7.631 7.631 0 0 0-.195-.206.534.534 0 0 0-.763.747c.058.058.114.118.169.178zm-8.139 16.707h-6.4a.533.533 0 1 0 0 1.066h6.4a2.638 2.638 0 0 0 2.667-2.667v-1.066a.534.534 0 0 0-.533-.534H6.933a.533.533 0 0 0-.533.534v1.066a2.638 2.638 0 0 0 2.667 2.667h4.8v2.667a.533.533 0 0 0 1.066 0v-3.2a.534.534 0 0 0-.533-.534H9.067c-.898 0-1.6-.703-1.6-1.6v-.533h17.066v.533c0 .897-.702 1.6-1.6 1.6zm5.326-7.695c.005.075.008.152.008.229a.533.533 0 0 0 1.066 0c0-.102-.004-.204-.011-.305a.531.531 0 0 0-.529-.496l-.042.002h.002a.534.534 0 0 0-.494.572v-.002zm-1.127-2.928a.535.535 0 0 0 .047.753l.001.001c.124.109.239.228.344.354a.532.532 0 0 0 .943-.341c0-.13-.047-.25-.124-.342l.001.001a4.275 4.275 0 0 0-.454-.467l-.005-.004a.531.531 0 0 0-.752.047v.001zm-10.599 2.593a.533.533 0 0 0-1.066 0v.593a.533.533 0 0 0 1.066 0v-.593zM16 14.656a.533.533 0 0 0-.533.534v.266a.533.533 0 0 0 1.066 0v-.266a.534.534 0 0 0-.533-.534zm2.133.8a.533.533 0 1 0 1.066 0v-.266a.533.533 0 1 0-1.066 0v.266zm-1.6-5.866c0-.084.001-.168.004-.251v-.013a.531.531 0 0 0-.329-.491l-.004-.001c-.02-.009-.044-.009-.065-.015-.04-.011-.078-.027-.121-.028h-.038c-.043.001-.082.017-.121.028-.021.006-.045.006-.064.015a.532.532 0 0 0-.332.492v.014-.001c.002.084.004.167.004.251v.267a.533.533 0 0 0 1.066 0V9.59zM12.8 15.456a.533.533 0 1 0 1.066 0v-.266a.533.533 0 1 0-1.066 0v.266zm.533-1.909a.534.534 0 0 0 .534-.533v-.542a.533.533 0 1 0-1.066 0v.542c0 .294.238.533.533.533zM11.2 15.456v-.266a.533.533 0 0 0-1.066 0v.266a.533.533 0 0 0 1.066 0zm-7.475-4.647a.53.53 0 0 0 .75-.068l.001-.001c.104-.126.22-.245.344-.354a.533.533 0 1 0-.706-.8h.001c-.165.145-.32.304-.459.472a.532.532 0 0 0 .068.75l.001.001z"/><path fill="#d4c17f" style="fill:var(--color1, #d4c17f)" d="M29.333 25.59h-11.2v-2.667a.533.533 0 0 0-1.066 0v3.2c0 .294.238.533.533.533h11.2v2.667c0 .882-.718 1.6-1.6 1.6H4.8c-.882 0-1.6-.718-1.6-1.6v-2.667h12.311a.533.533 0 0 0 0-1.066H2.667a.534.534 0 0 0-.534.533v3.2A2.67 2.67 0 0 0 4.8 31.99h22.4a2.67 2.67 0 0 0 2.667-2.667v-3.2a.533.533 0 0 0-.534-.533z"/><path fill="#d4c17f" style="fill:var(--color1, #d4c17f)" d="M12.8 28.256v1.067a.533.533 0 1 0 1.066 0v-1.067a.533.533 0 1 0-1.066 0zM.557 10.39H.538a.533.533 0 0 0-.532.514c-.004.095-.006.19-.006.286a.533.533 0 1 0 1.066 0c0-.083.002-.166.005-.248v-.019a.532.532 0 0 0-.514-.532H.556zm2.304-3.424c.12-.115.244-.225.372-.33a.534.534 0 1 0-.675-.825l.001-.001a7.048 7.048 0 0 0-.437.389.534.534 0 1 0 .739.766zm-1.41.875a.534.534 0 0 0-.715.235l-.001.003a7.13 7.13 0 0 0-.241.534.534.534 0 0 0 .989.4l.001-.003a5.75 5.75 0 0 1 .204-.453.533.533 0 0 0-.234-.714l-.003-.001zm.961-5.616a.53.53 0 0 0 .265-.071 7.45 7.45 0 0 1 .441-.235.534.534 0 1 0-.474-.956l.003-.001a8.897 8.897 0 0 0-.502.267.534.534 0 0 0 .267.996zm5.055 26.031v1.067a.533.533 0 0 0 1.066 0v-1.067a.533.533 0 0 0-1.066 0zM31.208 9.307a.535.535 0 0 0 .296-.696l.001.004a6.569 6.569 0 0 0-.259-.573l.018.038a.534.534 0 1 0-.952.481l-.001-.003c.074.148.143.298.204.453a.535.535 0 0 0 .697.295l-.004.001zm.786 1.597a.534.534 0 0 0-1.066.019v.02-.001c.003.082.005.165.005.248a.533.533 0 1 0 1.066 0c0-.096-.002-.19-.006-.286zm-2.14-9.674a8.293 8.293 0 0 0-.502-.267.536.536 0 0 0-.713.24l-.001.003a.534.534 0 0 0 .243.714c.15.073.296.152.44.235a.534.534 0 0 0 .534-.923l-.002-.001zm-5.321 28.093v-1.067a.533.533 0 0 0-1.066 0v1.067a.533.533 0 0 0 1.066 0zm-5.333 0v-1.067a.533.533 0 0 0-1.066 0v1.067a.533.533 0 0 0 1.066 0zM29.442 5.81a.533.533 0 0 0-.676.825l.001.001c.128.105.253.215.372.33a.533.533 0 1 0 .74-.766 6.738 6.738 0 0 0-.437-.389zM3.248 11.991a.528.528 0 0 0-.57.492v.002c-.007.101-.01.202-.01.305a.533.533 0 0 0 1.066 0c0-.077.003-.154.008-.229l.001-.038a.534.534 0 0 0-.493-.532h-.002zm7.317-.213a.534.534 0 0 0-.458.601v-.003c.018.136.026.273.026.414v.092a.533.533 0 1 0 1.066 0v-.092c0-.186-.012-.372-.036-.553a.531.531 0 0 0-.602-.459h.003zM9.963 1.61c.157.059.311.124.464.192a.532.532 0 0 0 .439-.971L10.863.83a6.906 6.906 0 0 0-.455-.194l-.067-.023a.536.536 0 0 0-.686.306l-.001.004a.533.533 0 0 0 .306.687l.004.001zm-.207 4.435c.145.08.287.166.424.257a.533.533 0 1 0 .594-.885l-.002-.001a6.695 6.695 0 0 0-.502-.304.533.533 0 0 0-.723.207l-.001.003a.533.533 0 0 0 .207.722l.003.001zM.533 3.723a.532.532 0 0 0 .394-.174c.055-.06.112-.12.169-.178a.533.533 0 0 0-.763-.747 7.631 7.631 0 0 0-.195.206.532.532 0 0 0 .394.893zm8.384 6.555c.13.104.252.216.363.336a.532.532 0 0 0 .935-.352.532.532 0 0 0-.152-.373 4.338 4.338 0 0 0-.482-.446.533.533 0 0 0-.665.834l.001.001zm2.984-2.211a.533.533 0 0 0 .738.166l-.002.001a.534.534 0 0 0 .167-.736 7.408 7.408 0 0 0-.346-.501l.013.019a.533.533 0 0 0-.748-.104l.001-.001a.532.532 0 0 0-.104.748l-.001-.001c.1.132.194.268.282.408zm.247-5.233c.132.102.262.208.388.318a.533.533 0 0 0 .7-.805l-.001-.001a8.888 8.888 0 0 0-.438-.359.534.534 0 0 0-.651.845l.001.001zm-7.252-1.56a.552.552 0 0 0 .114-.012 8.3 8.3 0 0 1 .495-.094.533.533 0 0 0 .442-.613v.003a.532.532 0 0 0-.614-.443h.003c-.187.03-.372.065-.555.105a.535.535 0 0 0 .113 1.054zm2.621-.198c.169.012.336.028.5.048a.53.53 0 0 0 .605-.528.532.532 0 0 0-.469-.529H8.15a7.96 7.96 0 0 0-.534-.053L7.587.012 7.554.011a.535.535 0 0 0-.534.496v.002l-.001.035c0 .282.219.513.496.532h.002zm5.541 8.18a.534.534 0 0 0-.402.641l-.001-.004c.037.16.066.322.088.486a.535.535 0 0 0 .603.456h-.003a.535.535 0 0 0 .457-.603v.003a7.017 7.017 0 0 0-.105-.579.536.536 0 0 0-.642-.401l.004-.001zM4.773 5.697c.06 0 .121-.01.18-.032a5.4 5.4 0 0 1 .473-.147.536.536 0 0 0 .379-.656l.001.004a.537.537 0 0 0-.656-.379l.004-.001c-.189.05-.376.109-.56.174a.533.533 0 0 0 .178 1.035h.002zm2.624-.356c.166.013.33.033.492.059a.532.532 0 0 0 .612-.437V4.96a.533.533 0 0 0-.436-.612h-.003a6.034 6.034 0 0 0-.56-.069l-.023-.001a.533.533 0 0 0-.084 1.062h.002zm-.85 4.268c.018 0 .037 0 .056-.003a3.183 3.183 0 0 1 .503-.013h-.008l.033.001a.527.527 0 0 0 .526-.506v-.001l.001-.027a.534.534 0 0 0-.505-.533h-.001a4.353 4.353 0 0 0-.676.019l.019-.002a.533.533 0 0 0 .054 1.064z"/></symbol><symbol id="icon-Instagram" viewBox="0 0 32 32"><path d="M19.751 6h-7.503A6.25 6.25 0 0 0 6 12.251v7.499c0 3.452 2.8 6.251 6.251 6.251h7.499c3.452 0 6.251-2.8 6.251-6.251v-7.497c0-3.452-2.8-6.251-6.251-6.251zm4.373 13.751a4.38 4.38 0 0 1-4.373 4.373h-7.503a4.38 4.38 0 0 1-4.373-4.373v-7.503a4.38 4.38 0 0 1 4.373-4.373h7.502a4.38 4.38 0 0 1 4.373 4.373v7.502z"/><path d="M16 11a5 5 0 0 0 0 10 5 5 0 0 0 0-10zm0 8.125A3.129 3.129 0 0 1 12.875 16 3.128 3.128 0 0 1 16 12.875 3.128 3.128 0 0 1 19.125 16 3.129 3.129 0 0 1 16 19.125zm5.375-7.833a.667.667 0 1 0 0-1.334.667.667 0 1 0 0 1.334z"/></symbol><symbol id="icon-mouse" viewBox="0 0 32 32"><path  d="M15.975 0c-5.191 0-9.413 4.222-9.413 9.413v13.174c0 5.19 4.222 9.413 9.414 9.413s9.413-4.222 9.413-9.413V9.413C25.388 4.223 21.166 0 15.975 0zm7.493 22.587c0 4.131-3.362 7.493-7.493 7.493s-7.493-3.362-7.493-7.493V9.413c0-4.131 3.362-7.493 7.493-7.493s7.493 3.362 7.493 7.493v13.174z"/><path d="M15.976 6.366a.96.96 0 0 0-.96.96v4.418a.96.96 0 0 0 1.92 0V7.326a.96.96 0 0 0-.96-.96z"/></symbol><symbol id="icon-phone-call" viewBox="0 0 32 32"><path  d="M27.981 23.045a2.155 2.155 0 0 0-1.055-1.587l-.01-.006-6.907-3.977a2.142 2.142 0 0 0-1.079-.287 2.16 2.16 0 0 0-1.532.634l-1.36 1.36a.995.995 0 0 1-1.335.073l.002.001a39.595 39.595 0 0 1-3.138-2.823l-.001-.001a39.572 39.572 0 0 1-2.765-3.066l-.057-.073a.995.995 0 0 1 .075-1.333l1.36-1.36a2.16 2.16 0 0 0 .34-2.619l.006.01-3.977-6.907A2.153 2.153 0 0 0 4.967.019L4.956.018a2.141 2.141 0 0 0-1.813.614L1.092 2.683c-1.431 1.431-1.453 4.048-.064 7.369 1.336 3.193 3.828 6.709 7.019 9.9s6.707 5.684 9.901 7.019c1.635.684 3.099 1.027 4.336 1.027 1.275 0 2.307-.364 3.033-1.091l2.051-2.051c.48-.48.704-1.14.615-1.813zm-8.425-4.782 6.907 3.977a1.244 1.244 0 0 1 .631 1.092c0 .28-.092.538-.248.746l.002-.003-9.18-5.24.373-.372c.4-.4 1.024-.483 1.515-.2zM4.836.917c.398.053.731.286.921.614l.003.006 3.977 6.907a1.256 1.256 0 0 1-.2 1.516l-.343.343-5.267-9.149a1.235 1.235 0 0 1 .914-.235L4.835.918zm19.84 25.351c-1.137 1.136-3.463 1.089-6.38-.131-3.088-1.292-6.5-3.715-9.609-6.824s-5.533-6.521-6.823-9.609C.644 6.787.596 4.463 1.732 3.325l1.523-1.523 5.276 9.164-.353.355a1.898 1.898 0 0 0-.137 2.544l-.003-.004a40.37 40.37 0 0 0 2.888 3.213 40.43 40.43 0 0 0 3.137 2.828l.075.059c.76.612 1.852.552 2.543-.139l.323-.323 9.192 5.247-1.52 1.52z"/></symbol><symbol id="icon-placeholder" viewBox="0 0 32 32"><path d="M16.563 7.469a3.585 3.585 0 0 0-3.579 3.58 3.584 3.584 0 0 0 3.578 3.579 3.584 3.584 0 0 0 3.58-3.578 3.584 3.584 0 0 0-3.58-3.58zm0 6.136a2.56 2.56 0 0 1-2.556-2.556 2.56 2.56 0 0 1 2.556-2.557 2.56 2.56 0 0 1 2.557 2.557 2.56 2.56 0 0 1-2.557 2.556z"/><path  d="M23.407 4.205a9.714 9.714 0 0 0-6.908-2.872h-.027.001-.026A9.713 9.713 0 0 0 9.54 4.205c-3.428 3.427-3.853 9.876-.923 13.783l7.856 11.345 7.844-11.331c2.943-3.921 2.517-10.371-.911-13.797zm.081 13.2-7.015 10.131-7.027-10.147c-2.659-3.544-2.277-9.368.816-12.461a8.7 8.7 0 0 1 6.186-2.572h.026-.001c2.347 0 4.551.913 6.211 2.573 3.093 3.093 3.475 8.916.804 12.476z"/></symbol><symbol id="icon-VK" viewBox="0 0 32 32"><path  d="M30.519 23.653a1.838 1.838 0 0 0-.102-.208l.006.011c-.485-.949-1.413-2.115-2.784-3.496l-.029-.032-.013-.015-.015-.016h-.016c-.621-.644-1.015-1.076-1.18-1.297-.301-.421-.369-.849-.204-1.281.116-.327.553-1.017 1.312-2.072.399-.56.713-1.007.947-1.344 1.681-2.427 2.411-3.976 2.187-4.651l-.087-.159c-.057-.093-.208-.181-.451-.26-.244-.08-.555-.093-.933-.04l-4.2.032c-.067-.027-.164-.024-.291.008l-.189.047-.073.04-.057.048a.683.683 0 0 0-.159.163l-.001.002c-.059.08-.108.171-.144.27l-.002.008a26.422 26.422 0 0 1-1.63 3.702l.07-.144c-.36.653-.689 1.22-.992 1.7-.3.48-.553.833-.757 1.06s-.388.408-.555.547c-.164.136-.291.195-.379.173a5.21 5.21 0 0 1-.317-.081l.069.017c-.139-.1-.25-.23-.325-.381l-.003-.006a1.78 1.78 0 0 1-.166-.61l-.001-.007a7.125 7.125 0 0 1-.052-.626v-.014c-.004-.18-.003-.433.008-.76.009-.327.013-.548.013-.664 0-.4.008-.836.023-1.305l.036-1.115c.011-.275.015-.564.015-.871s-.016-.545-.051-.72a2.59 2.59 0 0 0-.16-.524l.006.017a.84.84 0 0 0-.296-.377l-.003-.002a1.583 1.583 0 0 0-.477-.211l-.011-.002c-.515-.127-1.171-.195-1.968-.205-1.808-.021-2.969.105-3.484.38a2.014 2.014 0 0 0-.552.47l-.003.004c-.173.232-.2.36-.072.38.583.095.996.321 1.239.68l.088.189c.067.137.136.38.204.728.067.348.112.733.131 1.155.048.769.048 1.429 0 1.977-.049.548-.093.976-.139 1.281a2.731 2.731 0 0 1-.379 1.103l.007-.012a.27.27 0 0 1-.071.079h-.001c-.116.05-.252.08-.395.08-.136 0-.301-.075-.495-.223a3.628 3.628 0 0 1-.599-.602l-.006-.008a8.005 8.005 0 0 1-.685-1.041l-.021-.042a19.414 19.414 0 0 1-.817-1.645l-.233-.459a44.91 44.91 0 0 1-.597-1.289 20.046 20.046 0 0 1-.611-1.459l-.059-.179a1.047 1.047 0 0 0-.347-.505l-.002-.002-.073-.047a1.427 1.427 0 0 0-.559-.236l-.009-.001-3.995.031c-.408 0-.685.101-.831.301l-.059.095a.53.53 0 0 0-.044.255v-.002c0 .116.029.259.088.427a51.45 51.45 0 0 0 2.044 4.614l-.142-.312a46.878 46.878 0 0 0 1.912 3.566l-.125-.228c.505.844 1.02 1.64 1.545 2.388.524.749.872 1.229 1.041 1.44.171.211.304.369.401.475l.365.379c.233.253.575.557 1.027.911.453.353.953.701 1.503 1.044s1.187.621 1.917.837a6.018 6.018 0 0 0 2.143.261l-.016.001h1.676c.34-.032.597-.147.773-.347l.057-.08c.047-.085.085-.183.108-.286l.001-.007c.035-.131.051-.276.051-.435a5.744 5.744 0 0 1 .095-1.225c.053-.309.14-.585.258-.844l-.009.021c.092-.184.196-.34.313-.467.073-.087.154-.162.244-.227l.004-.003a.805.805 0 0 1 .11-.052l.006-.002c.233-.085.507-.003.824.245.316.248.612.553.889.917s.609.773.999 1.227c.388.453.729.789 1.02 1.011l.292.191c.195.127.447.243.757.348s.583.132.817.08l3.732-.064c.368 0 .656-.067.86-.197.204-.133.325-.277.364-.436a1.277 1.277 0 0 0 .005-.546l.001.008a2.13 2.13 0 0 0-.106-.435l.005.015z"/></symbol><symbol id="icon-YouTube" viewBox="0 0 32 32"><path d="M23.795 6.667H8.206c-3.059 0-5.539 2.628-5.539 5.869v8.261c0 3.239 2.48 5.869 5.539 5.869h15.589c3.059 0 5.539-2.628 5.539-5.869v-8.261c0-3.24-2.48-5.869-5.539-5.869zm-3.746 10.401-7.292 3.687c-.195.099-.419-.052-.419-.28v-7.603c0-.232.231-.381.425-.277l7.292 3.917c.216.116.213.445-.007.556z"/></symbol><symbol  id="play-button"><path d="M50 0C22.386 0 0 22.386 0 50s22.386 50 50 50 50-22.386 50-50S77.614 0 50 0Zm17.281 52.65-25 15.625a3.126 3.126 0 0 1-4.781-2.65v-31.25a3.124 3.124 0 0 1 4.781-2.65l25 15.625A3.129 3.129 0 0 1 68.75 50a3.128 3.128 0 0 1-1.469 2.65Z" fill="#D4C17F"/></symbol>
<symbol id="icon-close_menu" viewBox="0 0 32 32">
<path d="M23.734 10.304l-1.504-1.504-5.963 5.962-5.962-5.962-1.504 1.504 5.962 5.962-5.962 5.963 1.504 1.504 5.962-5.963 5.963 5.963 1.504-1.504-5.963-5.963 5.963-5.962z"></path>
</symbol>
<symbol id="icon-menu" viewBox="0 0 32 32">
<path d="M6.4 11.734v-2.134h19.2v2.134h-19.2zM6.4 17.066h19.2v-2.133h-19.2v2.133zM6.4 22.4h19.2v-2.134h-19.2v2.134z"></path>
</symbol></defs></svg>